<?xml version="1.0" encoding="UTF-8" standalone="no"?><svg xmlns="http://www.w3.org/2000/svg" xmlns:xlink="http://www.w3.org/1999/xlink" contentScriptType="application/ecmascript" contentStyleType="text/css" height="586px" preserveAspectRatio="none" style="width:529px;height:586px;" version="1.1" viewBox="0 0 529 586" width="529px" zoomAndPan="magnify"><defs><filter height="300%" id="f1nwui3xkvm0mc" width="300%" x="-1" y="-1"><feGaussianBlur result="blurOut" stdDeviation="2.0"/><feColorMatrix in="blurOut" result="blurOut2" type="matrix" values="0 0 0 0 0 0 0 0 0 0 0 0 0 0 0 0 0 0 .4 0"/><feOffset dx="4.0" dy="4.0" in="blurOut2" result="blurOut3"/><feBlend in="SourceGraphic" in2="blurOut3" mode="normal"/></filter></defs><g><!--class schema-analysis-jobs--><rect fill="#FEFECE" filter="url(#f1nwui3xkvm0mc)" height="73.6094" id="schema-analysis-jobs" style="stroke: #A80036; stroke-width: 1.5;" width="165" x="184.5" y="8"/><ellipse cx="199.5" cy="24" fill="#ADD1B2" rx="11" ry="11" style="stroke: #A80036; stroke-width: 1.0;"/><path d="M202.4688,29.6406 Q201.8906,29.9375 201.25,30.0781 Q200.6094,30.2344 199.9063,30.2344 Q197.4063,30.2344 196.0781,28.5938 Q194.7656,26.9375 194.7656,23.8125 Q194.7656,20.6875 196.0781,19.0313 Q197.4063,17.375 199.9063,17.375 Q200.6094,17.375 201.25,17.5313 Q201.9063,17.6875 202.4688,17.9844 L202.4688,20.7031 Q201.8438,20.125 201.25,19.8594 Q200.6563,19.5781 200.0313,19.5781 Q198.6875,19.5781 198,20.6563 Q197.3125,21.7188 197.3125,23.8125 Q197.3125,25.9063 198,26.9844 Q198.6875,28.0469 200.0313,28.0469 Q200.6563,28.0469 201.25,27.7813 Q201.8438,27.5 202.4688,26.9219 L202.4688,29.6406 Z "/><text fill="#000000" font-family="sans-serif" font-size="12" lengthAdjust="spacingAndGlyphs" textLength="133" x="213.5" y="28.1543">schema-analysis-jobs</text><line style="stroke: #A80036; stroke-width: 1.5;" x1="185.5" x2="348.5" y1="40" y2="40"/><text fill="#000000" font-family="sans-serif" font-size="11" lengthAdjust="spacingAndGlyphs" textLength="43" x="190.5" y="54.2104">created</text><text fill="#000000" font-family="sans-serif" font-size="11" lengthAdjust="spacingAndGlyphs" textLength="46" x="190.5" y="67.0151">finalized</text><line style="stroke: #A80036; stroke-width: 1.5;" x1="185.5" x2="348.5" y1="73.6094" y2="73.6094"/><!--class files--><rect fill="#FEFECE" filter="url(#f1nwui3xkvm0mc)" height="124.8281" id="files" style="stroke: #A80036; stroke-width: 1.5;" width="82" x="6" y="216.5"/><ellipse cx="32.25" cy="232.5" fill="#ADD1B2" rx="11" ry="11" style="stroke: #A80036; stroke-width: 1.0;"/><path d="M35.2188,238.1406 Q34.6406,238.4375 34,238.5781 Q33.3594,238.7344 32.6563,238.7344 Q30.1563,238.7344 28.8281,237.0938 Q27.5156,235.4375 27.5156,232.3125 Q27.5156,229.1875 28.8281,227.5313 Q30.1563,225.875 32.6563,225.875 Q33.3594,225.875 34,226.0313 Q34.6563,226.1875 35.2188,226.4844 L35.2188,229.2031 Q34.5938,228.625 34,228.3594 Q33.4063,228.0781 32.7813,228.0781 Q31.4375,228.0781 30.75,229.1563 Q30.0625,230.2188 30.0625,232.3125 Q30.0625,234.4063 30.75,235.4844 Q31.4375,236.5469 32.7813,236.5469 Q33.4063,236.5469 34,236.2813 Q34.5938,236 35.2188,235.4219 L35.2188,238.1406 Z "/><text fill="#000000" font-family="sans-serif" font-size="12" lengthAdjust="spacingAndGlyphs" textLength="25" x="48.75" y="236.6543">files</text><line style="stroke: #A80036; stroke-width: 1.5;" x1="7" x2="87" y1="248.5" y2="248.5"/><text fill="#000000" font-family="sans-serif" font-size="11" lengthAdjust="spacingAndGlyphs" textLength="49" x="12" y="262.7104">filename</text><text fill="#000000" font-family="sans-serif" font-size="11" lengthAdjust="spacingAndGlyphs" textLength="38" x="12" y="275.5151">format</text><text fill="#000000" font-family="sans-serif" font-size="11" lengthAdjust="spacingAndGlyphs" textLength="22" x="12" y="288.3198">size</text><text fill="#000000" font-family="sans-serif" font-size="11" lengthAdjust="spacingAndGlyphs" textLength="55" x="12" y="301.1245">extension</text><text fill="#000000" font-family="sans-serif" font-size="11" lengthAdjust="spacingAndGlyphs" textLength="43" x="12" y="313.9292">created</text><text fill="#000000" font-family="sans-serif" font-size="11" lengthAdjust="spacingAndGlyphs" textLength="70" x="12" y="326.7339">content-type</text><line style="stroke: #A80036; stroke-width: 1.5;" x1="7" x2="87" y1="333.3281" y2="333.3281"/><!--class sources--><rect fill="#FEFECE" filter="url(#f1nwui3xkvm0mc)" height="99.2188" id="sources" style="stroke: #A80036; stroke-width: 1.5;" width="82" x="226" y="229.5"/><ellipse cx="241" cy="245.5" fill="#ADD1B2" rx="11" ry="11" style="stroke: #A80036; stroke-width: 1.0;"/><path d="M243.9688,251.1406 Q243.3906,251.4375 242.75,251.5781 Q242.1094,251.7344 241.4063,251.7344 Q238.9063,251.7344 237.5781,250.0938 Q236.2656,248.4375 236.2656,245.3125 Q236.2656,242.1875 237.5781,240.5313 Q238.9063,238.875 241.4063,238.875 Q242.1094,238.875 242.75,239.0313 Q243.4063,239.1875 243.9688,239.4844 L243.9688,242.2031 Q243.3438,241.625 242.75,241.3594 Q242.1563,241.0781 241.5313,241.0781 Q240.1875,241.0781 239.5,242.1563 Q238.8125,243.2188 238.8125,245.3125 Q238.8125,247.4063 239.5,248.4844 Q240.1875,249.5469 241.5313,249.5469 Q242.1563,249.5469 242.75,249.2813 Q243.3438,249 243.9688,248.4219 L243.9688,251.1406 Z "/><text fill="#000000" font-family="sans-serif" font-size="12" lengthAdjust="spacingAndGlyphs" textLength="50" x="255" y="249.6543">sources</text><line style="stroke: #A80036; stroke-width: 1.5;" x1="227" x2="307" y1="261.5" y2="261.5"/><text fill="#000000" font-family="sans-serif" font-size="11" lengthAdjust="spacingAndGlyphs" textLength="32" x="232" y="275.7104">name</text><text fill="#000000" font-family="sans-serif" font-size="11" lengthAdjust="spacingAndGlyphs" textLength="43" x="232" y="288.5151">created</text><text fill="#000000" font-family="sans-serif" font-size="11" lengthAdjust="spacingAndGlyphs" textLength="63" x="232" y="301.3198">description</text><text fill="#000000" font-family="sans-serif" font-size="11" lengthAdjust="spacingAndGlyphs" textLength="25" x="232" y="314.1245">note</text><line style="stroke: #A80036; stroke-width: 1.5;" x1="227" x2="307" y1="320.7188" y2="320.7188"/><!--class columns--><rect fill="#FEFECE" filter="url(#f1nwui3xkvm0mc)" height="240.0703" id="columns" style="stroke: #A80036; stroke-width: 1.5;" width="120" x="398" y="159"/><ellipse cx="429.2" cy="175" fill="#ADD1B2" rx="11" ry="11" style="stroke: #A80036; stroke-width: 1.0;"/><path d="M432.1688,180.6406 Q431.5906,180.9375 430.95,181.0781 Q430.3094,181.2344 429.6063,181.2344 Q427.1063,181.2344 425.7781,179.5938 Q424.4656,177.9375 424.4656,174.8125 Q424.4656,171.6875 425.7781,170.0313 Q427.1063,168.375 429.6063,168.375 Q430.3094,168.375 430.95,168.5313 Q431.6063,168.6875 432.1688,168.9844 L432.1688,171.7031 Q431.5438,171.125 430.95,170.8594 Q430.3563,170.5781 429.7313,170.5781 Q428.3875,170.5781 427.7,171.6563 Q427.0125,172.7188 427.0125,174.8125 Q427.0125,176.9063 427.7,177.9844 Q428.3875,179.0469 429.7313,179.0469 Q430.3563,179.0469 430.95,178.7813 Q431.5438,178.5 432.1688,177.9219 L432.1688,180.6406 Z "/><text fill="#000000" font-family="sans-serif" font-size="12" lengthAdjust="spacingAndGlyphs" textLength="52" x="446.8" y="179.1543">columns</text><line style="stroke: #A80036; stroke-width: 1.5;" x1="399" x2="517" y1="191" y2="191"/><text fill="#000000" font-family="sans-serif" font-size="11" lengthAdjust="spacingAndGlyphs" textLength="32" x="404" y="205.2104">name</text><text fill="#000000" font-family="sans-serif" font-size="11" lengthAdjust="spacingAndGlyphs" textLength="25" x="404" y="218.0151">path</text><text fill="#000000" font-family="sans-serif" font-size="11" lengthAdjust="spacingAndGlyphs" textLength="63" x="404" y="230.8198">description</text><text fill="#000000" font-family="sans-serif" font-size="11" lengthAdjust="spacingAndGlyphs" textLength="25" x="404" y="243.6245">note</text><text fill="#000000" font-family="sans-serif" font-size="11" lengthAdjust="spacingAndGlyphs" textLength="108" x="404" y="256.4292">disable-processing</text><text fill="#000000" font-family="sans-serif" font-size="11" lengthAdjust="spacingAndGlyphs" textLength="53" x="404" y="269.2339">data-type</text><text fill="#000000" font-family="sans-serif" font-size="11" lengthAdjust="spacingAndGlyphs" textLength="72" x="404" y="282.0386">quantity-kind</text><text fill="#000000" font-family="sans-serif" font-size="11" lengthAdjust="spacingAndGlyphs" textLength="72" x="404" y="294.8433">record-count</text><text fill="#000000" font-family="sans-serif" font-size="11" lengthAdjust="spacingAndGlyphs" textLength="80" x="404" y="307.6479">missing-count</text><text fill="#000000" font-family="sans-serif" font-size="11" lengthAdjust="spacingAndGlyphs" textLength="55" x="404" y="320.4526">null-count</text><text fill="#000000" font-family="sans-serif" font-size="11" lengthAdjust="spacingAndGlyphs" textLength="21" x="404" y="333.2573">min</text><text fill="#000000" font-family="sans-serif" font-size="11" lengthAdjust="spacingAndGlyphs" textLength="24" x="404" y="346.062">max</text><text fill="#000000" font-family="sans-serif" font-size="11" lengthAdjust="spacingAndGlyphs" textLength="32" x="404" y="358.8667">mean</text><text fill="#000000" font-family="sans-serif" font-size="11" lengthAdjust="spacingAndGlyphs" textLength="42" x="404" y="371.6714">median</text><text fill="#000000" font-family="sans-serif" font-size="11" lengthAdjust="spacingAndGlyphs" textLength="90" x="404" y="384.4761">common-values</text><line style="stroke: #A80036; stroke-width: 1.5;" x1="399" x2="517" y1="391.0703" y2="391.0703"/><!--class units--><rect fill="#FEFECE" filter="url(#f1nwui3xkvm0mc)" height="99.2188" id="units" style="stroke: #A80036; stroke-width: 1.5;" width="64" x="425" y="476"/><ellipse cx="440.45" cy="492" fill="#ADD1B2" rx="11" ry="11" style="stroke: #A80036; stroke-width: 1.0;"/><path d="M443.4188,497.6406 Q442.8406,497.9375 442.2,498.0781 Q441.5594,498.2344 440.8563,498.2344 Q438.3563,498.2344 437.0281,496.5938 Q435.7156,494.9375 435.7156,491.8125 Q435.7156,488.6875 437.0281,487.0313 Q438.3563,485.375 440.8563,485.375 Q441.5594,485.375 442.2,485.5313 Q442.8563,485.6875 443.4188,485.9844 L443.4188,488.7031 Q442.7938,488.125 442.2,487.8594 Q441.6063,487.5781 440.9813,487.5781 Q439.6375,487.5781 438.95,488.6563 Q438.2625,489.7188 438.2625,491.8125 Q438.2625,493.9063 438.95,494.9844 Q439.6375,496.0469 440.9813,496.0469 Q441.6063,496.0469 442.2,495.7813 Q442.7938,495.5 443.4188,494.9219 L443.4188,497.6406 Z "/><text fill="#000000" font-family="sans-serif" font-size="12" lengthAdjust="spacingAndGlyphs" textLength="31" x="454.55" y="496.1543">units</text><line style="stroke: #A80036; stroke-width: 1.5;" x1="426" x2="488" y1="508" y2="508"/><text fill="#000000" font-family="sans-serif" font-size="11" lengthAdjust="spacingAndGlyphs" textLength="32" x="431" y="522.2104">name</text><text fill="#000000" font-family="sans-serif" font-size="11" lengthAdjust="spacingAndGlyphs" textLength="46" x="431" y="535.0151">notation</text><text fill="#000000" font-family="sans-serif" font-size="11" lengthAdjust="spacingAndGlyphs" textLength="15" x="431" y="547.8198">uri</text><text fill="#000000" font-family="sans-serif" font-size="11" lengthAdjust="spacingAndGlyphs" textLength="52" x="431" y="560.6245">definition</text><line style="stroke: #A80036; stroke-width: 1.5;" x1="426" x2="488" y1="567.2188" y2="567.2188"/><!--link schema-analysis-jobs to files--><path d="M184.1735,71.1075 C161.9159,81.1621 139.2604,94.5533 122,112 C94.9427,139.3494 76.7046,178.1725 64.995,211.504 " fill="none" id="schema-analysis-jobs-files" style="stroke: #A80036; stroke-width: 1.0;"/><polygon fill="#A80036" points="63.3145,216.38,70.0289,209.1746,64.9438,211.6529,62.4655,206.5678,63.3145,216.38" style="stroke: #A80036; stroke-width: 1.0;"/><text fill="#000000" font-family="sans-serif" font-size="13" lengthAdjust="spacingAndGlyphs" textLength="18" x="123" y="125.0669">file</text><polygon fill="#000000" points="127.5,134.1328,130.5,140.1328,133.5,134.1328,127.5,134.1328" style="stroke: #000000; stroke-width: 1.0;"/><text fill="#000000" font-family="sans-serif" font-size="13" lengthAdjust="spacingAndGlyphs" textLength="8" x="56.7384" y="205.3569">1</text><!--link schema-analysis-jobs to sources--><path d="M184.4994,80.8599 C166.9701,93.898 156.2946,110.1406 166,129 C176.4967,149.3971 193.1562,141.5105 208,159 C224.3387,178.2509 237.4439,202.8045 247.114,224.6802 " fill="none" id="schema-analysis-jobs-sources" style="stroke: #A80036; stroke-width: 1.0;"/><polygon fill="#A80036" points="249.1252,229.3047,249.2039,219.4562,247.1311,224.7196,241.8676,222.6468,249.1252,229.3047" style="stroke: #A80036; stroke-width: 1.0;"/><text fill="#000000" font-family="sans-serif" font-size="13" lengthAdjust="spacingAndGlyphs" textLength="43" x="167" y="125.0669">source</text><polygon fill="#000000" points="184,134.1328,187,140.1328,190,134.1328,184,134.1328" style="stroke: #000000; stroke-width: 1.0;"/><text fill="#000000" font-family="sans-serif" font-size="13" lengthAdjust="spacingAndGlyphs" textLength="8" x="238.0491" y="218.3225">1</text><!--link sources to schema-analysis-jobs--><path d="M265.0589,229.3074 C264.0196,196.0947 263.1177,151.427 264,112 C264.179,103.9988 264.4782,95.4643 264.8201,87.2595 " fill="none" id="sources-schema-analysis-jobs" style="stroke: #A80036; stroke-width: 1.0;"/><polygon fill="#A80036" points="265.0378,82.2012,260.6545,91.0209,264.8228,87.1966,268.6471,91.3649,265.0378,82.2012" style="stroke: #A80036; stroke-width: 1.0;"/><polygon fill="#000000" points="301.5,123,304.5,117,307.5,123,301.5,123" style="stroke: #000000; stroke-width: 1.0;"/><text fill="#000000" font-family="sans-serif" font-size="13" lengthAdjust="spacingAndGlyphs" textLength="82" x="265" y="138.0669">analysis-jobs</text><text fill="#000000" font-family="sans-serif" font-size="13" lengthAdjust="spacingAndGlyphs" textLength="7" x="257.1331" y="101.7151">*</text><!--link schema-analysis-jobs to columns--><path d="M330.604,82.0925 C342.8706,90.9421 354.9983,101.0378 365,112 C376.7559,124.8848 387.6047,139.5182 397.4233,154.639 " fill="none" id="schema-analysis-jobs-columns" style="stroke: #A80036; stroke-width: 1.0;"/><polygon fill="#A80036" points="400.1653,158.9157,398.6753,149.1802,397.4667,154.7064,391.9405,153.4979,400.1653,158.9157" style="stroke: #A80036; stroke-width: 1.0;"/><text fill="#000000" font-family="sans-serif" font-size="13" lengthAdjust="spacingAndGlyphs" textLength="54" x="380" y="125.0669">columns</text><polygon fill="#000000" points="402.5,134.1328,405.5,140.1328,408.5,134.1328,402.5,134.1328" style="stroke: #000000; stroke-width: 1.0;"/><text fill="#000000" font-family="sans-serif" font-size="13" lengthAdjust="spacingAndGlyphs" textLength="7" x="389.236" y="147.8112">*</text><!--link columns to schema-analysis-jobs--><path d="M473.8892,158.8078 C471.3336,142.0056 465.8701,125.7948 456,112 C443.3213,94.2798 397.8536,77.8698 354.6938,65.7254 " fill="none" id="columns-schema-analysis-jobs" style="stroke: #A80036; stroke-width: 1.0;"/><polygon fill="#A80036" points="349.716,64.3405,357.3144,70.6066,354.533,65.6808,359.4589,62.8994,349.716,64.3405" style="stroke: #A80036; stroke-width: 1.0;"/><polygon fill="#000000" points="472,119.0664,466,122.0664,472,125.0664,472,119.0664" style="stroke: #000000; stroke-width: 1.0;"/><text fill="#000000" font-family="sans-serif" font-size="13" lengthAdjust="spacingAndGlyphs" textLength="19" x="478" y="125.0669">job</text><text fill="#000000" font-family="sans-serif" font-size="13" lengthAdjust="spacingAndGlyphs" textLength="8" x="357.4391" y="62.4852">1</text><!--link columns to units--><path d="M412.4652,399.3418 C410.8037,415.0269 411.2538,430.8893 415,446 C417.053,454.281 420.1438,462.6499 423.7358,470.6916 " fill="none" id="columns-units" style="stroke: #A80036; stroke-width: 1.0;"/><polygon fill="#A80036" points="426.0322,475.6527,425.8816,465.805,423.9319,471.1152,418.6217,469.1655,426.0322,475.6527" style="stroke: #A80036; stroke-width: 1.0;"/><text fill="#000000" font-family="sans-serif" font-size="13" lengthAdjust="spacingAndGlyphs" textLength="24" x="416" y="442.0669">unit</text><polygon fill="#000000" points="423.5,451.1328,426.5,457.1328,429.5,451.1328,423.5,451.1328" style="stroke: #000000; stroke-width: 1.0;"/><text fill="#000000" font-family="sans-serif" font-size="13" lengthAdjust="spacingAndGlyphs" textLength="8" x="413.3334" y="465.0078">1</text><!--link units to columns--><path d="M457.7204,475.8831 C457.8369,465.9842 457.9392,455.662 458,446 C458.0844,432.5729 458.1383,418.5383 458.17,404.5556 " fill="none" id="units-columns" style="stroke: #A80036; stroke-width: 1.0;"/><polygon fill="#A80036" points="458.1806,399.4077,454.1618,408.3993,458.1702,404.4077,462.1618,408.416,458.1806,399.4077" style="stroke: #A80036; stroke-width: 1.0;"/><polygon fill="#000000" points="478,440,481,434,484,440,478,440" style="stroke: #000000; stroke-width: 1.0;"/><text fill="#000000" font-family="sans-serif" font-size="13" lengthAdjust="spacingAndGlyphs" textLength="47" x="459" y="455.0669">column</text><text fill="#000000" font-family="sans-serif" font-size="13" lengthAdjust="spacingAndGlyphs" textLength="7" x="450.9783" y="419.2709">*</text><!--link files to files--><path d="M88.0461,249.8976 C106.7453,246.9261 123,256.627 123,279 C123,299.2756 109.6502,309.1436 93.2294,308.604 " fill="none" id="files-files" style="stroke: #A80036; stroke-width: 1.0;"/><polygon fill="#A80036" points="88.0461,308.1024,96.619,312.9506,93.0229,308.584,97.3895,304.9878,88.0461,308.1024" style="stroke: #A80036; stroke-width: 1.0;"/><polygon fill="#000000" points="131,277.5664,125,280.5664,131,283.5664,131,277.5664" style="stroke: #000000; stroke-width: 1.0;"/><text fill="#000000" font-family="sans-serif" font-size="13" lengthAdjust="spacingAndGlyphs" textLength="60" x="142" y="283.5669">download</text><text fill="#000000" font-family="sans-serif" font-size="13" lengthAdjust="spacingAndGlyphs" textLength="8" x="96.0699" y="309.0444">1</text><!--
@startuml
set namespaceSeparator none
class "schema-analysis-jobs"
"schema-analysis-jobs" : created
"schema-analysis-jobs" : finalized
"schema-analysis-jobs" - -> "1" "files" : file > 
"schema-analysis-jobs" - -> "1" "sources" : source > 
"schema-analysis-jobs" - -> "*" "columns" : columns > 
class "columns"
"columns" : name
"columns" : path
"columns" : description
"columns" : note
"columns" : disable-processing
"columns" : data-type
"columns" : quantity-kind
"columns" : record-count
"columns" : missing-count
"columns" : null-count
"columns" : min
"columns" : max
"columns" : mean
"columns" : median
"columns" : common-values
"columns" - -> "1" "schema-analysis-jobs" : job > 
"columns" - -> "1" "units" : unit > 
class "sources"
"sources" : name
"sources" : created
"sources" : description
"sources" : note
"sources" - -> "*" "schema-analysis-jobs" : analysis-jobs > 
class "files"
"files" : filename
"files" : format
"files" : size
"files" : extension
"files" : created
"files" : content-type
"files" - -> "1" "files" : download > 
class "units"
"units" : name
"units" : notation
"units" : uri
"units" : definition
"units" - -> "*" "columns" : column > 
@enduml

PlantUML version 1.2019.05(Sat Apr 20 16:45:36 GMT 2019)
(GPL source distribution)
Java Runtime: OpenJDK Runtime Environment
JVM: OpenJDK 64-Bit Server VM
Java Version: 11.0.7+10-post-Ubuntu-2ubuntu218.04
Operating System: Linux
OS Version: 4.19.76-linuxkit
Default Encoding: ANSI_X3.4-1968
Language: en
Country: US
--></g></svg>